<?xml version="1.0" encoding="UTF-8"?>
<svg id="Layer_1" data-name="Layer 1" xmlns="http://www.w3.org/2000/svg" viewBox="0 0 590.22 611.57">
  <path d="m271.95,116.85l-54.73,54.73,13.1,43.46,54.72-54.72-13.09-43.47Zm273.09-62.83c-57.97-57.97-149.77-60.5-204.63-5.63l-36.36,36.36,13.1,43.46,51.54-51.54c40.11-40.1,107.21-38.26,149.58,4.12,42.38,42.37,44.22,109.47,4.12,149.58l-134.05,134.05,13.1,43.46,149.23-149.23c54.87-54.86,52.34-146.66-5.63-204.63Zm-243.53,397.23l13.1,43.46,54.72-54.72-13.1-43.46-54.72,54.72Zm-32.1,32.1l-47.87,47.87c-40.1,40.1-107.21,38.26-149.58-4.12-42.38-42.37-44.22-109.47-4.12-149.58l130.38-130.38-13.1-43.46L39.56,349.24c-54.87,54.86-52.34,146.66,5.63,204.63,57.97,57.97,149.77,60.5,204.63,5.63l32.69-32.69-13.1-43.46Z"/>
  <path d="m215.08,303.1l37.46,124.3-37.62,37.62c-22.33,22.33-58.54,22.33-80.88,0-11.16-11.17-16.75-25.81-16.75-40.44s5.59-29.28,16.75-40.44l81.04-81.04Z"/>
  <polygon points="301.91 216.27 339.37 340.57 284.65 395.29 247.18 271 301.91 216.27"/>
  <path d="m469.26,186.99c0,14.63-5.58,29.27-16.75,40.44l-81.04,81.04-37.46-124.3,37.62-37.62c22.34-22.34,58.55-22.34,80.88,0,11.17,11.17,16.75,25.8,16.75,40.44Z"/>
  <path d="m385,610.11c-3.28.99-6.59,1.46-9.85,1.46-14.65,0-28.19-9.52-32.63-24.27l-27.91-92.59-13.1-43.46-16.86-55.96-37.47-124.29-16.86-55.96-13.1-43.46-38.47-127.64c-5.43-18.03,4.78-37.05,22.81-42.48,3.28-.99,6.6-1.46,9.86-1.46,14.65,0,28.18,9.51,32.62,24.26l27.91,92.59,13.09,43.47,16.87,55.95,37.46,124.3,16.86,55.96,13.1,43.46,38.47,127.64c5.44,18.02-4.77,37.04-22.8,42.48Z"/>
  <path d="m385,610.11c-3.28.99-6.59,1.46-9.85,1.46-14.65,0-28.19-9.52-32.63-24.27l-27.91-92.59-13.1-43.46-16.86-55.96-37.47-124.29-16.86-55.96-13.1-43.46-38.47-127.64c-5.43-18.03,4.78-37.05,22.81-42.48,3.28-.99,6.6-1.46,9.86-1.46,14.65,0,28.18,9.51,32.62,24.26l27.91,92.59,13.09,43.47,16.87,55.95,37.46,124.3,16.86,55.96,13.1,43.46,38.47,127.64c5.44,18.02-4.77,37.04-22.8,42.48Z"/>
</svg>