<?xml version="1.0" encoding="utf-8"?>
<!-- Generator: Adobe Illustrator 24.0.1, SVG Export Plug-In . SVG Version: 6.00 Build 0)  -->
<svg version="1.1" id="Vrstva_1" xmlns="http://www.w3.org/2000/svg" xmlns:xlink="http://www.w3.org/1999/xlink" x="0px" y="0px"
	 viewBox="0 0 251.6 85.6" style="enable-background:new 0 0 251.6 85.6;" xml:space="preserve">
<style type="text/css">
	.st0{fill:#006EDB;}
</style>
<g>
	<g>
		<path class="st0" d="M58.9,5.9v4.6c0,3.8-2.1,5.9-5.9,5.9H19.6v19.3h28.3c3.8,0,5.9,2.1,5.9,5.9v3.3c0,3.8-2.1,6-5.9,6H19.6v28.8
			c0,3.8-2.1,5.9-5.9,5.9H6c-3.8,0-6-2.1-6-5.9V5.9C0,2.1,2.2,0,6,0H53C56.8,0,58.9,2.1,58.9,5.9"/>
		<path class="st0" d="M111.5,54.4L98.9,19.9l-13,34.5H111.5L111.5,54.4z M58.6,78.8L87.5,4.6C88.6,1.6,91,0,94.4,0h8.8
			c3.5,0,5.7,1.6,6.9,4.6l29.3,74.2c1.5,4-0.2,6.7-4.7,6.7h-8c-3.3,0-5.7-1.5-6.9-4.6l-4.3-11.2H82.1l-4.2,11.1
			c-1.2,3.2-3.5,4.8-6.8,4.8h-7.8C58.9,85.6,57.2,82.9,58.6,78.8"/>
		<path class="st0" d="M199.4,28.8c0-7.1-4.6-12.5-11.5-12.5h-16.3v24.7h16.3C194.8,41.1,199.4,35.7,199.4,28.8 M219.1,28.7
			c0,15.5-10.2,27.7-28.6,27.7h-18.9v23.2c0,3.8-2.1,5.9-5.9,5.9H158c-3.8,0-6-2.1-6-5.9V5.9c0-3.8,2.2-5.9,6-5.9h32.5
			C209,0,219.1,13.3,219.1,28.7"/>
		<path class="st0" d="M232,79.7V5.9c0-3.8,2.2-5.9,6-5.9h7.7c3.8,0,5.9,2.1,5.9,5.9v73.8c0,3.8-2.1,5.9-5.9,5.9H238
			C234.2,85.6,232,83.5,232,79.7"/>
	</g>
</g>
</svg>
