<svg height="512" viewBox="0 0 64 64" width="512" xmlns="http://www.w3.org/2000/svg"><g id="Layer_16" data-name="Layer 16"><path d="m61 16v32a4 4 0 0 1 -4 4h-50a4 4 0 0 1 -3.83-2.83 4.09 4.09 0 0 1 -.17-1.17v-32a4 4 0 0 1 4-4h50a3.93 3.93 0 0 1 1.5.29 4 4 0 0 1 2.5 3.71z" fill="#2196f3"/><rect fill="#1976d2" height="28" rx="2.69" width="21" x="8.5" y="18.5"/><g fill="#e1f5fe"><path d="m29.5 41.83v2a2.7 2.7 0 0 1 -2.69 2.69h-15.62a2.7 2.7 0 0 1 -2.69-2.71v-2a11 11 0 0 1 21 0z"/><circle cx="19" cy="29.25" r="4.75"/><path d="m54 23h-19a2 2 0 0 1 0-4h19a2 2 0 0 1 0 4z"/><path d="m54 34h-19a2 2 0 0 1 0-4h19a2 2 0 0 1 0 4z"/><path d="m54 46h-19a2 2 0 0 1 0-4h19a2 2 0 0 1 0 4z"/></g></g></svg>