<?xml version="1.0" encoding="utf-8"?>
<svg width="72" height="36" viewBox="0 0 5.449 4.286" version="1.1" id="svg8" xmlns="http://www.w3.org/2000/svg">
  <defs id="defs2"/>
  <g id="layer1" transform="matrix(1, 0, 0, 1, -2.055007, -290.112427)">
    <g id="g1021" transform="translate(0,9.5250003)">
      <g transform="matrix(0.1889881,0,0,0.1889881,1.7386905,279.68867)" id="Layer_56" data-name="Layer 56">
        <path d="M 30,10.5 V 24 a 3,3 0 0 1 -3,3 H 5 A 3,3 0 0 1 2,24 V 8 A 3,3 0 0 1 5,5 h 5 a 3,3 0 0 1 2.08,0.84 L 13.8,7.5 H 27 a 3,3 0 0 1 3,3 z" id="path826"/>
      </g>
    </g>
  </g>
</svg>
