<?xml version="1.0" encoding="UTF-8" standalone="no"?>
<!-- Created with Inkscape (http://www.inkscape.org/) -->

<svg
   xmlns:dc="http://purl.org/dc/elements/1.1/"
   xmlns:cc="http://creativecommons.org/ns#"
   xmlns:rdf="http://www.w3.org/1999/02/22-rdf-syntax-ns#"
   xmlns:svg="http://www.w3.org/2000/svg"
   xmlns="http://www.w3.org/2000/svg"
   xmlns:sodipodi="http://sodipodi.sourceforge.net/DTD/sodipodi-0.dtd"
   xmlns:inkscape="http://www.inkscape.org/namespaces/inkscape"
   width="72"
   height="36"
   viewBox="0 0 19.05 9.5250005"
   version="1.1"
   id="svg8"
   inkscape:version="0.92.3 (2405546, 2018-03-11)"
   sodipodi:docname="bullet.svg">
  <defs
     id="defs2" />
  <sodipodi:namedview
     id="base"
     pagecolor="#ffffff"
     bordercolor="#666666"
     borderopacity="1.0"
     inkscape:pageopacity="0.0"
     inkscape:pageshadow="2"
     inkscape:zoom="5.6"
     inkscape:cx="35.892038"
     inkscape:cy="10.773822"
     inkscape:document-units="px"
     inkscape:current-layer="layer1"
     showgrid="false"
     units="px"
     showguides="true"
     inkscape:guide-bbox="true"
     inkscape:window-width="1920"
     inkscape:window-height="1017"
     inkscape:window-x="-8"
     inkscape:window-y="-8"
     inkscape:window-maximized="1">
    <sodipodi:guide
       position="9.5250003,0"
       orientation="1,0"
       id="guide839"
       inkscape:locked="false"
       inkscape:label=""
       inkscape:color="rgb(0,0,255)" />
    <sodipodi:guide
       position="0,9.5250003"
       orientation="0,1"
       id="guide944"
       inkscape:locked="false"
       inkscape:label=""
       inkscape:color="rgb(0,0,255)" />
  </sodipodi:namedview>
  <metadata
     id="metadata5">
    <rdf:RDF>
      <cc:Work
         rdf:about="">
        <dc:format>image/svg+xml</dc:format>
        <dc:type
           rdf:resource="http://purl.org/dc/dcmitype/StillImage" />
        <dc:title />
      </cc:Work>
    </rdf:RDF>
  </metadata>
  <g
     inkscape:label="Vrstva 1"
     inkscape:groupmode="layer"
     id="layer1"
     transform="translate(0,-287.47498)">
    <g
       id="g940"
       transform="matrix(0.00905008,0,0,0.00905008,12.303126,290.25309)"
       style="fill:#b0b0b0;fill-opacity:1">
      <g
         id="g884"
         style="fill:#b0b0b0;fill-opacity:1">
        <path
           id="path882"
           d="M 409.133,109.203 C 389.525,75.611 362.928,49.014 329.335,29.407 295.736,9.801 259.058,0 219.273,0 179.492,0 142.803,9.801 109.21,29.407 75.615,49.011 49.018,75.608 29.41,109.203 9.801,142.8 0,179.489 0,219.267 c 0,39.78 9.804,76.463 29.407,110.062 19.607,33.592 46.204,60.189 79.799,79.798 33.597,19.605 70.283,29.407 110.063,29.407 39.78,0 76.47,-9.802 110.065,-29.407 33.593,-19.602 60.189,-46.206 79.795,-79.798 19.603,-33.596 29.403,-70.284 29.403,-110.062 0.001,-39.782 -9.8,-76.472 -29.399,-110.064 z m -55.391,188.005 c -13.894,23.791 -32.736,42.633 -56.527,56.534 -23.791,13.894 -49.771,20.834 -77.945,20.834 -28.167,0 -54.149,-6.94 -77.943,-20.834 C 117.536,339.841 98.694,320.999 84.8,297.208 70.903,273.417 63.957,247.436 63.957,219.267 c 0,-28.171 6.949,-54.152 20.843,-77.943 13.891,-23.791 32.738,-42.637 56.527,-56.53 23.791,-13.895 49.772,-20.84 77.943,-20.84 28.173,0 54.154,6.945 77.945,20.84 23.791,13.894 42.634,32.739 56.527,56.53 13.895,23.791 20.838,49.772 20.838,77.943 0,28.169 -6.943,54.15 -20.838,77.941 z"
           inkscape:connector-curvature="0"
           style="fill:#b0b0b0;fill-opacity:1" />
      </g>
      <g
         id="g886"
         style="fill:#b0b0b0;fill-opacity:1" />
      <g
         id="g888"
         style="fill:#b0b0b0;fill-opacity:1" />
      <g
         id="g890"
         style="fill:#b0b0b0;fill-opacity:1" />
      <g
         id="g892"
         style="fill:#b0b0b0;fill-opacity:1" />
      <g
         id="g894"
         style="fill:#b0b0b0;fill-opacity:1" />
      <g
         id="g896"
         style="fill:#b0b0b0;fill-opacity:1" />
      <g
         id="g898"
         style="fill:#b0b0b0;fill-opacity:1" />
      <g
         id="g900"
         style="fill:#b0b0b0;fill-opacity:1" />
      <g
         id="g902"
         style="fill:#b0b0b0;fill-opacity:1" />
      <g
         id="g904"
         style="fill:#b0b0b0;fill-opacity:1" />
      <g
         id="g906"
         style="fill:#b0b0b0;fill-opacity:1" />
      <g
         id="g908"
         style="fill:#b0b0b0;fill-opacity:1" />
      <g
         id="g910"
         style="fill:#b0b0b0;fill-opacity:1" />
      <g
         id="g912"
         style="fill:#b0b0b0;fill-opacity:1" />
      <g
         id="g914"
         style="fill:#b0b0b0;fill-opacity:1" />
    </g>
    <path
       style="fill:none;stroke:#b0b0b0;stroke-width:0.26511253;stroke-linecap:butt;stroke-linejoin:miter;stroke-miterlimit:4;stroke-dasharray:1.06045013,0.26511253;stroke-dashoffset:0;stroke-opacity:1"
       d="m 4.7247025,287.47498 0,4.8003 v 4.7247"
       id="path1014"
       inkscape:connector-curvature="0"
       sodipodi:nodetypes="ccc" />
    <path
       style="fill:none;stroke:#b0b0b0;stroke-width:0.26458334;stroke-linecap:butt;stroke-linejoin:miter;stroke-miterlimit:4;stroke-dasharray:1.05833336,0.26458334;stroke-dashoffset:0;stroke-opacity:1"
       d="M 12.614956,292.22803 H 4.7247025"
       id="path1016"
       inkscape:connector-curvature="0" />
  </g>
</svg>
