<?xml version="1.0" encoding="UTF-8" standalone="no"?>
<svg
   xmlns:dc="http://purl.org/dc/elements/1.1/"
   xmlns:cc="http://creativecommons.org/ns#"
   xmlns:rdf="http://www.w3.org/1999/02/22-rdf-syntax-ns#"
   xmlns:svg="http://www.w3.org/2000/svg"
   xmlns="http://www.w3.org/2000/svg"
   id="svg8"
   version="1.1"
   viewBox="0 0 19.05 9.5250005"
   height="36"
   width="72">
  <defs
     id="defs2" />
  <metadata
     id="metadata5">
    <rdf:RDF>
      <cc:Work
         rdf:about="">
        <dc:format>image/svg+xml</dc:format>
        <dc:type
           rdf:resource="http://purl.org/dc/dcmitype/StillImage" />
        <dc:title></dc:title>
      </cc:Work>
    </rdf:RDF>
  </metadata>
  <g
     transform="translate(0,-287.47498)"
     id="layer1">
    <path
       id="path1016"
       d="M 12.614956,292.22803 H 4.7247025"
       style="fill:none;stroke:#b0b0b0;stroke-width:0.26458334;stroke-linecap:butt;stroke-linejoin:miter;stroke-miterlimit:4;stroke-dasharray:1.05833336,0.26458334;stroke-dashoffset:0;stroke-opacity:1" />
    <g
       style="fill:#0074e2;fill-opacity:1"
       transform="matrix(0.00905008,0,0,0.00905008,12.303126,290.25309)"
       id="g940">
      <g
         style="fill:#0074e2;fill-opacity:1"
         id="g884">
        <path
           style="fill:#0074e2;fill-opacity:1"
           d="M 409.133,109.203 C 389.525,75.611 362.928,49.014 329.335,29.407 295.736,9.801 259.058,0 219.273,0 179.492,0 142.803,9.801 109.21,29.407 75.615,49.011 49.018,75.608 29.41,109.203 9.801,142.8 0,179.489 0,219.267 c 0,39.78 9.804,76.463 29.407,110.062 19.607,33.592 46.204,60.189 79.799,79.798 33.597,19.605 70.283,29.407 110.063,29.407 39.78,0 76.47,-9.802 110.065,-29.407 33.593,-19.602 60.189,-46.206 79.795,-79.798 19.603,-33.596 29.403,-70.284 29.403,-110.062 0.001,-39.782 -9.8,-76.472 -29.399,-110.064 z m -55.391,188.005 c -13.894,23.791 -32.736,42.633 -56.527,56.534 -23.791,13.894 -49.771,20.834 -77.945,20.834 -28.167,0 -54.149,-6.94 -77.943,-20.834 C 117.536,339.841 98.694,320.999 84.8,297.208 70.903,273.417 63.957,247.436 63.957,219.267 c 0,-28.171 6.949,-54.152 20.843,-77.943 13.891,-23.791 32.738,-42.637 56.527,-56.53 23.791,-13.895 49.772,-20.84 77.943,-20.84 28.173,0 54.154,6.945 77.945,20.84 23.791,13.894 42.634,32.739 56.527,56.53 13.895,23.791 20.838,49.772 20.838,77.943 0,28.169 -6.943,54.15 -20.838,77.941 z"
           id="path882" />
      </g>
      <g
         style="fill:#0074e2;fill-opacity:1"
         id="g886" />
      <g
         style="fill:#0074e2;fill-opacity:1"
         id="g888" />
      <g
         style="fill:#0074e2;fill-opacity:1"
         id="g890" />
      <g
         style="fill:#0074e2;fill-opacity:1"
         id="g892" />
      <g
         style="fill:#0074e2;fill-opacity:1"
         id="g894" />
      <g
         style="fill:#0074e2;fill-opacity:1"
         id="g896" />
      <g
         style="fill:#0074e2;fill-opacity:1"
         id="g898" />
      <g
         style="fill:#0074e2;fill-opacity:1"
         id="g900" />
      <g
         style="fill:#0074e2;fill-opacity:1"
         id="g902" />
      <g
         style="fill:#0074e2;fill-opacity:1"
         id="g904" />
      <g
         style="fill:#0074e2;fill-opacity:1"
         id="g906" />
      <g
         style="fill:#0074e2;fill-opacity:1"
         id="g908" />
      <g
         style="fill:#0074e2;fill-opacity:1"
         id="g910" />
      <g
         style="fill:#0074e2;fill-opacity:1"
         id="g912" />
      <g
         style="fill:#0074e2;fill-opacity:1"
         id="g914" />
    </g>
    <path
       id="path1014"
       d="m 4.7247025,287.47498 0,4.8003 v 4.7247"
       style="fill:none;stroke:#b0b0b0;stroke-width:0.26511253;stroke-linecap:butt;stroke-linejoin:miter;stroke-miterlimit:4;stroke-dasharray:1.06045013,0.26511253;stroke-dashoffset:0;stroke-opacity:1" />
  </g>
</svg>
