<?xml version="1.0" encoding="UTF-8" standalone="no"?>
<!-- Generator: Adobe Illustrator 19.0.0, SVG Export Plug-In . SVG Version: 6.00 Build 0)  -->

<svg
   xmlns:dc="http://purl.org/dc/elements/1.1/"
   xmlns:cc="http://creativecommons.org/ns#"
   xmlns:rdf="http://www.w3.org/1999/02/22-rdf-syntax-ns#"
   xmlns:svg="http://www.w3.org/2000/svg"
   xmlns="http://www.w3.org/2000/svg"
   xmlns:sodipodi="http://sodipodi.sourceforge.net/DTD/sodipodi-0.dtd"
   xmlns:inkscape="http://www.inkscape.org/namespaces/inkscape"
   version="1.1"
   id="Capa_1"
   x="0px"
   y="0px"
   viewBox="0 0 403.377 403.377"
   style="enable-background:new 0 0 403.377 403.377;"
   xml:space="preserve"
   sodipodi:docname="close.svg"
   inkscape:version="0.92.3 (2405546, 2018-03-11)"><metadata
   id="metadata43"><rdf:RDF><cc:Work
       rdf:about=""><dc:format>image/svg+xml</dc:format><dc:type
         rdf:resource="http://purl.org/dc/dcmitype/StillImage" /></cc:Work></rdf:RDF></metadata><defs
   id="defs41" /><sodipodi:namedview
   pagecolor="#ffffff"
   bordercolor="#666666"
   borderopacity="1"
   objecttolerance="10"
   gridtolerance="10"
   guidetolerance="10"
   inkscape:pageopacity="0"
   inkscape:pageshadow="2"
   inkscape:window-width="1920"
   inkscape:window-height="1017"
   id="namedview39"
   showgrid="false"
   inkscape:zoom="0.58506061"
   inkscape:cx="201.68851"
   inkscape:cy="201.68851"
   inkscape:window-x="-8"
   inkscape:window-y="-8"
   inkscape:window-maximized="1"
   inkscape:current-layer="Capa_1" />
<g
   id="g6"
   style="fill:#ff0200;fill-opacity:1">
	<g
   id="g4"
   style="fill:#ff0200;fill-opacity:1">
		<path
   d="M394.042,303.537L292.184,201.679L394.011,99.853c12.447-12.447,12.447-32.799,0-45.251L348.699,9.357    c-12.447-12.416-32.799-12.416-45.245,0L201.622,111.183L99.8,9.357c-12.416-12.416-32.799-12.416-45.251,0L9.335,54.602    c-12.447,12.447-12.447,32.799,0,45.251l101.827,101.827L9.335,303.537c-12.447,12.447-12.447,32.799,0,45.245l45.251,45.215    c12.447,12.447,32.829,12.447,45.245,0l101.827-101.791l101.821,101.791c12.447,12.447,32.799,12.447,45.312,0l45.251-45.215    C406.488,336.335,406.488,315.983,394.042,303.537z"
   id="path2"
   style="fill:#ff0200;fill-opacity:1" />
	</g>
</g>
<g
   id="g8">
</g>
<g
   id="g10">
</g>
<g
   id="g12">
</g>
<g
   id="g14">
</g>
<g
   id="g16">
</g>
<g
   id="g18">
</g>
<g
   id="g20">
</g>
<g
   id="g22">
</g>
<g
   id="g24">
</g>
<g
   id="g26">
</g>
<g
   id="g28">
</g>
<g
   id="g30">
</g>
<g
   id="g32">
</g>
<g
   id="g34">
</g>
<g
   id="g36">
</g>
</svg>